<svg width="64" height="64" viewBox="0 0 64 64" fill="none" xmlns="http://www.w3.org/2000/svg">
<g clip-path="url(#clip0_1_56)">
<g filter="url(#filter0_i_1_56)">
<path d="M3.5 56.1492V6.5C3.5 5.85971 3.75435 5.24565 4.20711 4.79289L4.5 4.5C5.14029 3.85971 6.00871 3.5 6.91421 3.5H56.6492C57.5236 3.5 58.372 3.79759 59.0548 4.34383C59.9682 5.0746 60.5 6.18098 60.5 7.35078V55.7322C60.5 56.8641 60.0504 57.9496 59.25 58.75C58.4496 59.5504 57.3641 60 56.2322 60H7.35078C6.18098 60 5.0746 59.4682 4.34383 58.5548C3.79759 57.872 3.5 57.0236 3.5 56.1492Z" fill="#242424"/>
</g>
<path d="M3.5 56.1492V6.5C3.5 5.85971 3.75435 5.24565 4.20711 4.79289L4.5 4.5C5.14029 3.85971 6.00871 3.5 6.91421 3.5H56.6492C57.5236 3.5 58.372 3.79759 59.0548 4.34383C59.9682 5.0746 60.5 6.18098 60.5 7.35078V55.7322C60.5 56.8641 60.0504 57.9496 59.25 58.75C58.4496 59.5504 57.3641 60 56.2322 60H7.35078C6.18098 60 5.0746 59.4682 4.34383 58.5548C3.79759 57.872 3.5 57.0236 3.5 56.1492Z" stroke="#E05C2B" stroke-width="2"/>
<g filter="url(#filter1_d_1_56)">
<path d="M33.5 20.6237L32.7424 21.9183L32.722 21.9063L32.702 21.8938L33.5 20.6237ZM15 9L32.3084 9.64719L23.0937 24.3131L15 9ZM49 37.3011L50.4434 36.8931L50.5 37.0931V37.3011H49ZM50.5 56V57.5H47.5V56H50.5ZM43 26.1828L43.7576 24.8882L43.9277 24.9877L44.0663 25.1278L43 26.1828ZM47 30.2258L48.0663 29.1708L48.3383 29.4457L48.4434 29.8178L47 30.2258ZM32.702 21.8938L25.6329 17.4522L27.229 14.912L34.298 19.3536L32.702 21.8938ZM47.5 51.4516V45.3871H50.5V51.4516H47.5ZM47.5 45.3871V37.3011H50.5V45.3871H47.5ZM47.5 56V53.9785H50.5V56H47.5ZM47.5 53.9785V51.4516H50.5V53.9785H47.5ZM42.2424 27.4774L32.7424 21.9183L34.2576 19.329L43.7576 24.8882L42.2424 27.4774ZM47.5566 37.7091L45.5566 30.6338L48.4434 29.8178L50.4434 36.8931L47.5566 37.7091ZM45.9337 31.2808L41.9337 27.2378L44.0663 25.1278L48.0663 29.1708L45.9337 31.2808Z" fill="white"/>
</g>
</g>
<defs>
<filter id="filter0_i_1_56" x="2.5" y="2.5" width="59" height="62.5" filterUnits="userSpaceOnUse" color-interpolation-filters="sRGB">
<feFlood flood-opacity="0" result="BackgroundImageFix"/>
<feBlend mode="normal" in="SourceGraphic" in2="BackgroundImageFix" result="shape"/>
<feColorMatrix in="SourceAlpha" type="matrix" values="0 0 0 0 0 0 0 0 0 0 0 0 0 0 0 0 0 0 127 0" result="hardAlpha"/>
<feOffset dy="4"/>
<feGaussianBlur stdDeviation="2"/>
<feComposite in2="hardAlpha" operator="arithmetic" k2="-1" k3="1"/>
<feColorMatrix type="matrix" values="0 0 0 0 0 0 0 0 0 0 0 0 0 0 0 0 0 0 0.25 0"/>
<feBlend mode="normal" in2="shape" result="effect1_innerShadow_1_56"/>
</filter>
<filter id="filter1_d_1_56" x="11" y="9" width="43.5" height="56.5" filterUnits="userSpaceOnUse" color-interpolation-filters="sRGB">
<feFlood flood-opacity="0" result="BackgroundImageFix"/>
<feColorMatrix in="SourceAlpha" type="matrix" values="0 0 0 0 0 0 0 0 0 0 0 0 0 0 0 0 0 0 127 0" result="hardAlpha"/>
<feOffset dy="4"/>
<feGaussianBlur stdDeviation="2"/>
<feComposite in2="hardAlpha" operator="out"/>
<feColorMatrix type="matrix" values="0 0 0 0 0 0 0 0 0 0 0 0 0 0 0 0 0 0 0.5 0"/>
<feBlend mode="normal" in2="BackgroundImageFix" result="effect1_dropShadow_1_56"/>
<feBlend mode="normal" in="SourceGraphic" in2="effect1_dropShadow_1_56" result="shape"/>
</filter>
<clipPath id="clip0_1_56">
<rect width="64" height="64" fill="white"/>
</clipPath>
</defs>
</svg>
