<svg width="64" height="64" viewBox="0 0 64 64" fill="none" xmlns="http://www.w3.org/2000/svg">
<g clip-path="url(#clip0_1_48)">
<g filter="url(#filter0_i_1_48)">
<path d="M3.5 56.1492V6.5C3.5 5.85971 3.75435 5.24565 4.20711 4.79289L4.5 4.5C5.14029 3.85971 6.00871 3.5 6.91421 3.5H56.6492C57.5236 3.5 58.372 3.79759 59.0548 4.34383C59.9682 5.0746 60.5 6.18098 60.5 7.35078V55.7322C60.5 56.8641 60.0504 57.9496 59.25 58.75C58.4496 59.5504 57.3641 60 56.2322 60H7.35078C6.18098 60 5.0746 59.4682 4.34383 58.5548C3.79759 57.872 3.5 57.0236 3.5 56.1492Z" fill="#242424"/>
</g>
<path d="M3.5 56.1492V6.5C3.5 5.85971 3.75435 5.24565 4.20711 4.79289L4.5 4.5C5.14029 3.85971 6.00871 3.5 6.91421 3.5H56.6492C57.5236 3.5 58.372 3.79759 59.0548 4.34383C59.9682 5.0746 60.5 6.18098 60.5 7.35078V55.7322C60.5 56.8641 60.0504 57.9496 59.25 58.75C58.4496 59.5504 57.3641 60 56.2322 60H7.35078C6.18098 60 5.0746 59.4682 4.34383 58.5548C3.79759 57.872 3.5 57.0236 3.5 56.1492Z" stroke="#D8892C" stroke-width="2"/>
<g filter="url(#filter1_d_1_48)">
<path d="M32.2545 22.8571L33.2989 21.7805L33.3091 21.7903L33.3191 21.8004L32.2545 22.8571ZM19 10L35.7966 14.2278L23.737 26.6602L19 10ZM46 42.1429L47.4621 41.8079L47.5 41.9732V42.1429H46ZM44.5273 35.7143L45.6408 34.7093L45.9023 34.999L45.9894 35.3793L44.5273 35.7143ZM47.5 55V56.5H44.5V55H47.5ZM39.6182 30.2747L40.6827 29.2179L40.7078 29.2433L40.7317 29.2698L39.6182 30.2747ZM31.2101 23.9338L27.6457 20.4762L29.7345 18.3229L33.2989 21.7805L31.2101 23.9338ZM44.5 47.5824V42.1429H47.5V47.5824H44.5ZM44.5379 42.4778L43.0652 36.0492L45.9894 35.3793L47.4621 41.8079L44.5379 42.4778ZM44.5 55V53.5165H47.5V55H44.5ZM44.5 53.5165V47.5824H47.5V53.5165H44.5ZM43.4137 36.7193L38.5046 31.2797L40.7317 29.2698L45.6408 34.7093L43.4137 36.7193ZM38.5537 31.3315L31.19 23.9139L33.3191 21.8004L40.6827 29.2179L38.5537 31.3315Z" fill="white"/>
</g>
</g>
<defs>
<filter id="filter0_i_1_48" x="2.5" y="2.5" width="59" height="62.5" filterUnits="userSpaceOnUse" color-interpolation-filters="sRGB">
<feFlood flood-opacity="0" result="BackgroundImageFix"/>
<feBlend mode="normal" in="SourceGraphic" in2="BackgroundImageFix" result="shape"/>
<feColorMatrix in="SourceAlpha" type="matrix" values="0 0 0 0 0 0 0 0 0 0 0 0 0 0 0 0 0 0 127 0" result="hardAlpha"/>
<feOffset dy="4"/>
<feGaussianBlur stdDeviation="2"/>
<feComposite in2="hardAlpha" operator="arithmetic" k2="-1" k3="1"/>
<feColorMatrix type="matrix" values="0 0 0 0 0 0 0 0 0 0 0 0 0 0 0 0 0 0 0.25 0"/>
<feBlend mode="normal" in2="shape" result="effect1_innerShadow_1_48"/>
</filter>
<filter id="filter1_d_1_48" x="15" y="10" width="36.5" height="54.5" filterUnits="userSpaceOnUse" color-interpolation-filters="sRGB">
<feFlood flood-opacity="0" result="BackgroundImageFix"/>
<feColorMatrix in="SourceAlpha" type="matrix" values="0 0 0 0 0 0 0 0 0 0 0 0 0 0 0 0 0 0 127 0" result="hardAlpha"/>
<feOffset dy="4"/>
<feGaussianBlur stdDeviation="2"/>
<feComposite in2="hardAlpha" operator="out"/>
<feColorMatrix type="matrix" values="0 0 0 0 0 0 0 0 0 0 0 0 0 0 0 0 0 0 0.5 0"/>
<feBlend mode="normal" in2="BackgroundImageFix" result="effect1_dropShadow_1_48"/>
<feBlend mode="normal" in="SourceGraphic" in2="effect1_dropShadow_1_48" result="shape"/>
</filter>
<clipPath id="clip0_1_48">
<rect width="64" height="64" fill="white"/>
</clipPath>
</defs>
</svg>
