<svg width="64" height="64" viewBox="0 0 64 64" fill="none" xmlns="http://www.w3.org/2000/svg">
<g clip-path="url(#clip0_1_36)">
<g filter="url(#filter0_i_1_36)">
<path d="M3.5 56.1492V6.5C3.5 5.85971 3.75435 5.24565 4.20711 4.79289L4.5 4.5C5.14029 3.85971 6.00871 3.5 6.91421 3.5H56.6492C57.5236 3.5 58.372 3.79759 59.0548 4.34383C59.9682 5.0746 60.5 6.18098 60.5 7.35078V55.7322C60.5 56.8641 60.0504 57.9496 59.25 58.75C58.4496 59.5504 57.3641 60 56.2322 60H7.35078C6.18098 60 5.0746 59.4682 4.34383 58.5548C3.79759 57.872 3.5 57.0236 3.5 56.1492Z" fill="#242424"/>
</g>
<path d="M3.5 56.1492V6.5C3.5 5.85971 3.75435 5.24565 4.20711 4.79289L4.5 4.5C5.14029 3.85971 6.00871 3.5 6.91421 3.5H56.6492C57.5236 3.5 58.372 3.79759 59.0548 4.34383C59.9682 5.0746 60.5 6.18098 60.5 7.35078V55.7322C60.5 56.8641 60.0504 57.9496 59.25 58.75C58.4496 59.5504 57.3641 60 56.2322 60H7.35078C6.18098 60 5.0746 59.4682 4.34383 58.5548C3.79759 57.872 3.5 57.0236 3.5 56.1492Z" stroke="#DFB12A" stroke-width="2"/>
<g filter="url(#filter1_d_1_36)">
<path d="M30.5 22.5L29.3789 21.5034L29.3711 21.5122L30.5 22.5ZM42.5 9L26.0618 14.4576L39.0073 25.9647L42.5 9ZM22 39L20.5242 38.7317L20.5 38.8647V39H22ZM23 33.5L21.6976 32.7558L21.5702 32.9789L21.5242 33.2317L23 33.5ZM20.5 55V56.5H23.5V55H20.5ZM27 26.5L25.8711 25.5122L25.7722 25.6253L25.6976 25.7558L27 26.5ZM31.6211 23.4965L34.6522 20.0866L32.41 18.0935L29.3789 21.5035L31.6211 23.4965ZM23.5 44.5V39H20.5V44.5H23.5ZM23.4758 39.2683L24.4758 33.7683L21.5242 33.2317L20.5242 38.7317L23.4758 39.2683ZM23.5 55V50.5H20.5V55H23.5ZM23.5 50.5V44.5H20.5V50.5H23.5ZM24.3024 34.2442L28.3024 27.2442L25.6976 25.7558L21.6976 32.7558L24.3024 34.2442ZM28.1289 27.4878L31.6289 23.4878L29.3711 21.5122L25.8711 25.5122L28.1289 27.4878Z" fill="white"/>
</g>
</g>
<defs>
<filter id="filter0_i_1_36" x="2.5" y="2.5" width="59" height="62.5" filterUnits="userSpaceOnUse" color-interpolation-filters="sRGB">
<feFlood flood-opacity="0" result="BackgroundImageFix"/>
<feBlend mode="normal" in="SourceGraphic" in2="BackgroundImageFix" result="shape"/>
<feColorMatrix in="SourceAlpha" type="matrix" values="0 0 0 0 0 0 0 0 0 0 0 0 0 0 0 0 0 0 127 0" result="hardAlpha"/>
<feOffset dy="4"/>
<feGaussianBlur stdDeviation="2"/>
<feComposite in2="hardAlpha" operator="arithmetic" k2="-1" k3="1"/>
<feColorMatrix type="matrix" values="0 0 0 0 0 0 0 0 0 0 0 0 0 0 0 0 0 0 0.25 0"/>
<feBlend mode="normal" in2="shape" result="effect1_innerShadow_1_36"/>
</filter>
<filter id="filter1_d_1_36" x="16.5" y="9" width="30" height="55.5" filterUnits="userSpaceOnUse" color-interpolation-filters="sRGB">
<feFlood flood-opacity="0" result="BackgroundImageFix"/>
<feColorMatrix in="SourceAlpha" type="matrix" values="0 0 0 0 0 0 0 0 0 0 0 0 0 0 0 0 0 0 127 0" result="hardAlpha"/>
<feOffset dy="4"/>
<feGaussianBlur stdDeviation="2"/>
<feComposite in2="hardAlpha" operator="out"/>
<feColorMatrix type="matrix" values="0 0 0 0 0 0 0 0 0 0 0 0 0 0 0 0 0 0 0.5 0"/>
<feBlend mode="normal" in2="BackgroundImageFix" result="effect1_dropShadow_1_36"/>
<feBlend mode="normal" in="SourceGraphic" in2="effect1_dropShadow_1_36" result="shape"/>
</filter>
<clipPath id="clip0_1_36">
<rect width="64" height="64" fill="white"/>
</clipPath>
</defs>
</svg>
