<svg width="64" height="64" viewBox="0 0 64 64" fill="none" xmlns="http://www.w3.org/2000/svg">
<g clip-path="url(#clip0_1_32)">
<g filter="url(#filter0_i_1_32)">
<path d="M3.5 56.1492V6.5C3.5 5.85971 3.75435 5.24565 4.20711 4.79289L4.5 4.5C5.14029 3.85971 6.00871 3.5 6.91421 3.5H56.6492C57.5236 3.5 58.372 3.79759 59.0548 4.34383C59.9682 5.0746 60.5 6.18098 60.5 7.35078V55.7322C60.5 56.8641 60.0504 57.9496 59.25 58.75C58.4496 59.5504 57.3641 60 56.2322 60H7.35078C6.18098 60 5.0746 59.4682 4.34383 58.5548C3.79759 57.872 3.5 57.0236 3.5 56.1492Z" fill="#242424"/>
</g>
<path d="M3.5 56.1492V6.5C3.5 5.85971 3.75435 5.24565 4.20711 4.79289L4.5 4.5C5.14029 3.85971 6.00871 3.5 6.91421 3.5H56.6492C57.5236 3.5 58.372 3.79759 59.0548 4.34383C59.9682 5.0746 60.5 6.18098 60.5 7.35078V55.7322C60.5 56.8641 60.0504 57.9496 59.25 58.75C58.4496 59.5504 57.3641 60 56.2322 60H7.35078C6.18098 60 5.0746 59.4682 4.34383 58.5548C3.79759 57.872 3.5 57.0236 3.5 56.1492Z" stroke="#D5D825" stroke-width="2"/>
<g filter="url(#filter1_d_1_32)">
<path d="M35.1707 27.5L36.3927 26.63L36.3971 26.6362L36.4014 26.6424L35.1707 27.5ZM22 9L37.7545 16.1969L23.6445 26.2423L22 9ZM42 44.5L43.4769 44.238L43.5 44.368V44.5H42ZM41.0244 39L42.464 38.5787L42.487 38.6573L42.5013 38.738L41.0244 39ZM39.561 34L40.8184 33.1822L40.9386 33.367L41.0006 33.5787L39.561 34ZM43.5 55V56.5H40.5V55H43.5ZM37.6098 31L38.8404 30.1424L38.8541 30.1621L38.8672 30.1822L37.6098 31ZM33.9488 28.37L28.6076 20.8676L31.0515 19.1277L36.3927 26.63L33.9488 28.37ZM40.5231 44.762L39.5474 39.262L42.5013 38.738L43.4769 44.238L40.5231 44.762ZM39.5848 39.4213L38.1214 34.4213L41.0006 33.5787L42.464 38.5787L39.5848 39.4213ZM40.5 55V50.5H43.5V55H40.5ZM40.5 50.5V44.5H43.5V50.5H40.5ZM38.3035 34.8178L36.3523 31.8178L38.8672 30.1822L40.8184 33.1822L38.3035 34.8178ZM36.3791 31.8576L33.9401 28.3576L36.4014 26.6424L38.8404 30.1424L36.3791 31.8576Z" fill="white"/>
</g>
</g>
<defs>
<filter id="filter0_i_1_32" x="2.5" y="2.5" width="59" height="62.5" filterUnits="userSpaceOnUse" color-interpolation-filters="sRGB">
<feFlood flood-opacity="0" result="BackgroundImageFix"/>
<feBlend mode="normal" in="SourceGraphic" in2="BackgroundImageFix" result="shape"/>
<feColorMatrix in="SourceAlpha" type="matrix" values="0 0 0 0 0 0 0 0 0 0 0 0 0 0 0 0 0 0 127 0" result="hardAlpha"/>
<feOffset dy="4"/>
<feGaussianBlur stdDeviation="2"/>
<feComposite in2="hardAlpha" operator="arithmetic" k2="-1" k3="1"/>
<feColorMatrix type="matrix" values="0 0 0 0 0 0 0 0 0 0 0 0 0 0 0 0 0 0 0.25 0"/>
<feBlend mode="normal" in2="shape" result="effect1_innerShadow_1_32"/>
</filter>
<filter id="filter1_d_1_32" x="18" y="9" width="29.5" height="55.5" filterUnits="userSpaceOnUse" color-interpolation-filters="sRGB">
<feFlood flood-opacity="0" result="BackgroundImageFix"/>
<feColorMatrix in="SourceAlpha" type="matrix" values="0 0 0 0 0 0 0 0 0 0 0 0 0 0 0 0 0 0 127 0" result="hardAlpha"/>
<feOffset dy="4"/>
<feGaussianBlur stdDeviation="2"/>
<feComposite in2="hardAlpha" operator="out"/>
<feColorMatrix type="matrix" values="0 0 0 0 0 0 0 0 0 0 0 0 0 0 0 0 0 0 0.5 0"/>
<feBlend mode="normal" in2="BackgroundImageFix" result="effect1_dropShadow_1_32"/>
<feBlend mode="normal" in="SourceGraphic" in2="effect1_dropShadow_1_32" result="shape"/>
</filter>
<clipPath id="clip0_1_32">
<rect width="64" height="64" fill="white"/>
</clipPath>
</defs>
</svg>
