<svg width="64" height="64" viewBox="0 0 64 64" fill="none" xmlns="http://www.w3.org/2000/svg">
<g clip-path="url(#clip0_1_24)">
<g filter="url(#filter0_i_1_24)">
<path d="M3.5 56.1492V6.5C3.5 5.85971 3.75435 5.24565 4.20711 4.79289L4.5 4.5C5.14029 3.85971 6.00871 3.5 6.91421 3.5H56.6492C57.5236 3.5 58.372 3.79759 59.0548 4.34383C59.9682 5.0746 60.5 6.18098 60.5 7.35078V55.7322C60.5 56.8641 60.0504 57.9496 59.25 58.75C58.4496 59.5504 57.3641 60 56.2322 60H7.35078C6.18098 60 5.0746 59.4682 4.34383 58.5548C3.79759 57.872 3.5 57.0236 3.5 56.1492Z" fill="#242424"/>
</g>
<path d="M3.5 56.1492V6.5C3.5 5.85971 3.75435 5.24565 4.20711 4.79289L4.5 4.5C5.14029 3.85971 6.00871 3.5 6.91421 3.5H56.6492C57.5236 3.5 58.372 3.79759 59.0548 4.34383C59.9682 5.0746 60.5 6.18098 60.5 7.35078V55.7322C60.5 56.8641 60.0504 57.9496 59.25 58.75C58.4496 59.5504 57.3641 60 56.2322 60H7.35078C6.18098 60 5.0746 59.4682 4.34383 58.5548C3.79759 57.872 3.5 57.0236 3.5 56.1492Z" stroke="#ABE828" stroke-width="2"/>
<g filter="url(#filter1_d_1_24)">
<path d="M36.6061 29L37.875 28.2002L37.9522 28.3226L38.0045 28.4576L36.6061 29ZM24 9L39.3247 17.0718L24.672 26.3075L24 9ZM40 45L41.4958 44.8884L41.5 44.9441V45H40ZM39.5152 38.5L40.9815 38.184L41.0033 38.2852L41.011 38.3884L39.5152 38.5ZM38.5455 34L39.9439 33.4576L39.9868 33.5681L40.0118 33.684L38.5455 34ZM41.5 55V56.5H38.5V55H41.5ZM35.3371 29.7998L29.9295 21.2205L32.4674 19.6208L37.875 28.2002L35.3371 29.7998ZM38.5042 45.1116L38.0193 38.6116L41.011 38.3884L41.4958 44.8884L38.5042 45.1116ZM38.0488 38.816L37.0791 34.316L40.0118 33.684L40.9815 38.184L38.0488 38.816ZM37.147 34.5424L35.2076 29.5424L38.0045 28.4576L39.9439 33.4576L37.147 34.5424ZM38.5 55V50.5H41.5V55H38.5ZM38.5 50.5V45H41.5V50.5H38.5Z" fill="white"/>
</g>
</g>
<defs>
<filter id="filter0_i_1_24" x="2.5" y="2.5" width="59" height="62.5" filterUnits="userSpaceOnUse" color-interpolation-filters="sRGB">
<feFlood flood-opacity="0" result="BackgroundImageFix"/>
<feBlend mode="normal" in="SourceGraphic" in2="BackgroundImageFix" result="shape"/>
<feColorMatrix in="SourceAlpha" type="matrix" values="0 0 0 0 0 0 0 0 0 0 0 0 0 0 0 0 0 0 127 0" result="hardAlpha"/>
<feOffset dy="4"/>
<feGaussianBlur stdDeviation="2"/>
<feComposite in2="hardAlpha" operator="arithmetic" k2="-1" k3="1"/>
<feColorMatrix type="matrix" values="0 0 0 0 0 0 0 0 0 0 0 0 0 0 0 0 0 0 0.25 0"/>
<feBlend mode="normal" in2="shape" result="effect1_innerShadow_1_24"/>
</filter>
<filter id="filter1_d_1_24" x="20" y="9" width="25.5" height="55.5" filterUnits="userSpaceOnUse" color-interpolation-filters="sRGB">
<feFlood flood-opacity="0" result="BackgroundImageFix"/>
<feColorMatrix in="SourceAlpha" type="matrix" values="0 0 0 0 0 0 0 0 0 0 0 0 0 0 0 0 0 0 127 0" result="hardAlpha"/>
<feOffset dy="4"/>
<feGaussianBlur stdDeviation="2"/>
<feComposite in2="hardAlpha" operator="out"/>
<feColorMatrix type="matrix" values="0 0 0 0 0 0 0 0 0 0 0 0 0 0 0 0 0 0 0.5 0"/>
<feBlend mode="normal" in2="BackgroundImageFix" result="effect1_dropShadow_1_24"/>
<feBlend mode="normal" in="SourceGraphic" in2="effect1_dropShadow_1_24" result="shape"/>
</filter>
<clipPath id="clip0_1_24">
<rect width="64" height="64" fill="white"/>
</clipPath>
</defs>
</svg>
