<svg width="64" height="64" viewBox="0 0 64 64" fill="none" xmlns="http://www.w3.org/2000/svg">
<g filter="url(#filter0_i_24_2)">
<path d="M3.5 56.1492V6.5C3.5 5.85971 3.75435 5.24565 4.20711 4.79289L4.5 4.5C5.14029 3.85971 6.00871 3.5 6.91421 3.5H56.6492C57.5236 3.5 58.372 3.79759 59.0548 4.34383C59.9682 5.0746 60.5 6.18098 60.5 7.35078V55.7322C60.5 56.8641 60.0504 57.9496 59.25 58.75C58.4496 59.5504 57.3641 60 56.2322 60H7.35078C6.18098 60 5.0746 59.4682 4.34383 58.5548C3.79759 57.872 3.5 57.0236 3.5 56.1492Z" fill="#242424"/>
</g>
<path d="M3.5 56.1492V6.5C3.5 5.85971 3.75435 5.24565 4.20711 4.79289L4.5 4.5C5.14029 3.85971 6.00871 3.5 6.91421 3.5H56.6492C57.5236 3.5 58.372 3.79759 59.0548 4.34383C59.9682 5.0746 60.5 6.18098 60.5 7.35078V55.7322C60.5 56.8641 60.0504 57.9496 59.25 58.75C58.4496 59.5504 57.3641 60 56.2322 60H7.35078C6.18098 60 5.0746 59.4682 4.34383 58.5548C3.79759 57.872 3.5 57.0236 3.5 56.1492Z" stroke="#24A5EE" stroke-width="2"/>
<g clip-path="url(#clip0_24_2)" filter="url(#filter1_d_24_2)">
<path d="M20 16C21.1063 16 22 16.8937 22 18V19L26.3125 17.925C28.6937 17.3312 31.2062 17.6062 33.4062 18.7062C36.3 20.1562 39.7063 20.1562 42.6 18.7062L43.2 18.4062C44.4875 17.7563 46 18.6937 46 20.1312V37.6125C46 38.4437 45.4813 39.1937 44.7 39.4875L42.5312 40.3C39.6437 41.3812 36.4313 41.2125 33.675 39.8375C31.3063 38.65 28.5938 38.3562 26.0188 39L22 40V46C22 47.1063 21.1063 48 20 48C18.8937 48 18 47.1063 18 46V41V36.875V20V18C18 16.8937 18.8937 16 20 16ZM22 27.6938L26 26.825V30.9187L22 31.7875V35.875L25.05 35.1125C25.3688 35.0312 25.6813 34.9625 26 34.9062V30.9125L28.4312 30.3875C28.95 30.275 29.475 30.2313 30 30.2563V26.2563C30.85 26.2813 31.7 26.4188 32.525 26.6562L34 27.0875V31.2563L31.3938 30.4875C30.9375 30.3563 30.4688 30.275 30 30.25V34.7125C31.3625 34.8312 32.7062 35.1312 34 35.6125V31.25L35.4188 31.6687C36.2625 31.9187 37.125 32.0688 38 32.1313V28.1187C37.5125 28.0687 37.025 27.975 36.55 27.8375L34 27.0875V23.2125C33.1875 22.975 32.3875 22.6625 31.6125 22.275C31.1 22.0188 30.5562 21.8375 30 21.725V26.25C29.1875 26.225 28.375 26.3 27.5813 26.475L26 26.825V22.125L22 23.125V27.6938ZM38 36.9813C39.05 37.075 40.1187 36.9375 41.125 36.5562L42 36.2313V31.75L41.5063 31.8625C40.3563 32.1313 39.175 32.2187 38 32.1437V36.9813ZM42 27.6438V23.2188C40.6938 23.6 39.35 23.7875 38 23.7875V28.125C38.8687 28.2125 39.75 28.1562 40.6063 27.9625L42 27.6375V27.6438Z" fill="white" fill-opacity="0.9"/>
</g>
<defs>
<filter id="filter0_i_24_2" x="2.5" y="2.5" width="59" height="62.5" filterUnits="userSpaceOnUse" color-interpolation-filters="sRGB">
<feFlood flood-opacity="0" result="BackgroundImageFix"/>
<feBlend mode="normal" in="SourceGraphic" in2="BackgroundImageFix" result="shape"/>
<feColorMatrix in="SourceAlpha" type="matrix" values="0 0 0 0 0 0 0 0 0 0 0 0 0 0 0 0 0 0 127 0" result="hardAlpha"/>
<feOffset dy="4"/>
<feGaussianBlur stdDeviation="2"/>
<feComposite in2="hardAlpha" operator="arithmetic" k2="-1" k3="1"/>
<feColorMatrix type="matrix" values="0 0 0 0 0 0 0 0 0 0 0 0 0 0 0 0 0 0 0.25 0"/>
<feBlend mode="normal" in2="shape" result="effect1_innerShadow_24_2"/>
</filter>
<filter id="filter1_d_24_2" x="14" y="16" width="36" height="40" filterUnits="userSpaceOnUse" color-interpolation-filters="sRGB">
<feFlood flood-opacity="0" result="BackgroundImageFix"/>
<feColorMatrix in="SourceAlpha" type="matrix" values="0 0 0 0 0 0 0 0 0 0 0 0 0 0 0 0 0 0 127 0" result="hardAlpha"/>
<feOffset dy="4"/>
<feGaussianBlur stdDeviation="2"/>
<feComposite in2="hardAlpha" operator="out"/>
<feColorMatrix type="matrix" values="0 0 0 0 0 0 0 0 0 0 0 0 0 0 0 0 0 0 0.25 0"/>
<feBlend mode="normal" in2="BackgroundImageFix" result="effect1_dropShadow_24_2"/>
<feBlend mode="normal" in="SourceGraphic" in2="effect1_dropShadow_24_2" result="shape"/>
</filter>
<clipPath id="clip0_24_2">
<rect width="28" height="32" fill="white" transform="translate(18 16)"/>
</clipPath>
</defs>
</svg>
