<svg width="64" height="64" viewBox="0 0 64 64" fill="none" xmlns="http://www.w3.org/2000/svg">
<g clip-path="url(#clip0_1_64)">
<g filter="url(#filter0_i_1_64)">
<path d="M3.5 56.1492V6.5C3.5 5.85971 3.75435 5.24565 4.20711 4.79289L4.5 4.5C5.14029 3.85971 6.00871 3.5 6.91421 3.5H56.6492C57.5236 3.5 58.372 3.79759 59.0548 4.34383C59.9682 5.0746 60.5 6.18098 60.5 7.35078V55.7322C60.5 56.8641 60.0504 57.9496 59.25 58.75C58.4496 59.5504 57.3641 60 56.2322 60H7.35078C6.18098 60 5.0746 59.4682 4.34383 58.5548C3.79759 57.872 3.5 57.0236 3.5 56.1492Z" fill="#242424"/>
</g>
<path d="M3.5 56.1492V6.5C3.5 5.85971 3.75435 5.24565 4.20711 4.79289L4.5 4.5C5.14029 3.85971 6.00871 3.5 6.91421 3.5H56.6492C57.5236 3.5 58.372 3.79759 59.0548 4.34383C59.9682 5.0746 60.5 6.18098 60.5 7.35078V55.7322C60.5 56.8641 60.0504 57.9496 59.25 58.75C58.4496 59.5504 57.3641 60 56.2322 60H7.35078C6.18098 60 5.0746 59.4682 4.34383 58.5548C3.79759 57.872 3.5 57.0236 3.5 56.1492Z" stroke="#E62A4B" stroke-width="2"/>
<g filter="url(#filter1_d_1_64)">
<mask id="path-2-outside-1_1_64" maskUnits="userSpaceOnUse" x="50" y="7" width="6" height="18" fill="black">
<rect fill="white" x="50" y="7" width="6" height="18"/>
<path d="M54.76 17.024L52.2 19.52V8.32H54.76V17.024ZM54.76 24H51.88V21.44H54.76V24Z"/>
</mask>
<path d="M54.76 17.024L52.2 19.52V8.32H54.76V17.024ZM54.76 24H51.88V21.44H54.76V24Z" fill="white"/>
<path d="M54.76 17.024L55.4581 17.74L55.76 17.4456V17.024H54.76ZM52.2 19.52H51.2V21.8916L52.8981 20.236L52.2 19.52ZM52.2 8.32V7.32H51.2V8.32H52.2ZM54.76 8.32H55.76V7.32H54.76V8.32ZM54.76 24V25H55.76V24H54.76ZM51.88 24H50.88V25H51.88V24ZM51.88 21.44V20.44H50.88V21.44H51.88ZM54.76 21.44H55.76V20.44H54.76V21.44ZM54.0619 16.308L51.5019 18.804L52.8981 20.236L55.4581 17.74L54.0619 16.308ZM53.2 19.52V8.32H51.2V19.52H53.2ZM52.2 9.32H54.76V7.32H52.2V9.32ZM53.76 8.32V17.024H55.76V8.32H53.76ZM54.76 23H51.88V25H54.76V23ZM52.88 24V21.44H50.88V24H52.88ZM51.88 22.44H54.76V20.44H51.88V22.44ZM53.76 21.44V24H55.76V21.44H53.76Z" fill="#E62A4B" mask="url(#path-2-outside-1_1_64)"/>
</g>
<g filter="url(#filter2_d_1_64)">
<path d="M11 21L26 12.3397L26 29.6603L11 21ZM42.5 56V57.5H39.5V56H42.5ZM41 21V19.5H42.5V21H41ZM24.5484 22.5H24.5V19.5H24.5484V22.5ZM39.5 51.5634V44.662H42.5V51.5634H39.5ZM39.5 44.662V38.7465H42.5V44.662H39.5ZM39.5 56V53.5352H42.5V56H39.5ZM39.5 53.5352V51.5634H42.5V53.5352H39.5ZM39.5 38.7465V31.8451H42.5V38.7465H39.5ZM39.5 31.8451V21H42.5V31.8451H39.5ZM41 22.5H35.1935V19.5H41V22.5ZM35.1935 22.5H24.5484V19.5H35.1935V22.5Z" fill="white"/>
</g>
</g>
<defs>
<filter id="filter0_i_1_64" x="2.5" y="2.5" width="59" height="62.5" filterUnits="userSpaceOnUse" color-interpolation-filters="sRGB">
<feFlood flood-opacity="0" result="BackgroundImageFix"/>
<feBlend mode="normal" in="SourceGraphic" in2="BackgroundImageFix" result="shape"/>
<feColorMatrix in="SourceAlpha" type="matrix" values="0 0 0 0 0 0 0 0 0 0 0 0 0 0 0 0 0 0 127 0" result="hardAlpha"/>
<feOffset dy="4"/>
<feGaussianBlur stdDeviation="2"/>
<feComposite in2="hardAlpha" operator="arithmetic" k2="-1" k3="1"/>
<feColorMatrix type="matrix" values="0 0 0 0 0 0 0 0 0 0 0 0 0 0 0 0 0 0 0.25 0"/>
<feBlend mode="normal" in2="shape" result="effect1_innerShadow_1_64"/>
</filter>
<filter id="filter1_d_1_64" x="47.88" y="8.32001" width="10.88" height="23.68" filterUnits="userSpaceOnUse" color-interpolation-filters="sRGB">
<feFlood flood-opacity="0" result="BackgroundImageFix"/>
<feColorMatrix in="SourceAlpha" type="matrix" values="0 0 0 0 0 0 0 0 0 0 0 0 0 0 0 0 0 0 127 0" result="hardAlpha"/>
<feOffset dy="4"/>
<feGaussianBlur stdDeviation="2"/>
<feComposite in2="hardAlpha" operator="out"/>
<feColorMatrix type="matrix" values="0 0 0 0 0 0 0 0 0 0 0 0 0 0 0 0 0 0 0.25 0"/>
<feBlend mode="normal" in2="BackgroundImageFix" result="effect1_dropShadow_1_64"/>
<feBlend mode="normal" in="SourceGraphic" in2="effect1_dropShadow_1_64" result="shape"/>
</filter>
<filter id="filter2_d_1_64" x="7" y="12.3398" width="39.5" height="53.1602" filterUnits="userSpaceOnUse" color-interpolation-filters="sRGB">
<feFlood flood-opacity="0" result="BackgroundImageFix"/>
<feColorMatrix in="SourceAlpha" type="matrix" values="0 0 0 0 0 0 0 0 0 0 0 0 0 0 0 0 0 0 127 0" result="hardAlpha"/>
<feOffset dy="4"/>
<feGaussianBlur stdDeviation="2"/>
<feComposite in2="hardAlpha" operator="out"/>
<feColorMatrix type="matrix" values="0 0 0 0 0 0 0 0 0 0 0 0 0 0 0 0 0 0 0.5 0"/>
<feBlend mode="normal" in2="BackgroundImageFix" result="effect1_dropShadow_1_64"/>
<feBlend mode="normal" in="SourceGraphic" in2="effect1_dropShadow_1_64" result="shape"/>
</filter>
<clipPath id="clip0_1_64">
<rect width="64" height="64" fill="white"/>
</clipPath>
</defs>
</svg>
