<svg width="40" height="40" viewBox="0 0 40 40" fill="none" xmlns="http://www.w3.org/2000/svg">
<rect width="40" height="40" rx="5" fill="url(#paint0_radial_4_42)" fill-opacity="0.1"/>
<path fill-rule="evenodd" clip-rule="evenodd" d="M11 14C11 12.3431 12.3431 11 14 11H16.25C17.9069 11 19.25 12.3431 19.25 14V16.25C19.25 17.9069 17.9069 19.25 16.25 19.25H14C12.3431 19.25 11 17.9069 11 16.25V14ZM20.75 14C20.75 12.3431 22.0931 11 23.75 11H26C27.6569 11 29 12.3431 29 14V16.25C29 17.9069 27.6569 19.25 26 19.25H23.75C22.0931 19.25 20.75 17.9069 20.75 16.25V14ZM11 23.75C11 22.0931 12.3431 20.75 14 20.75H16.25C17.9069 20.75 19.25 22.0931 19.25 23.75V26C19.25 27.6569 17.9069 29 16.25 29H14C12.3431 29 11 27.6569 11 26V23.75ZM20.75 23.75C20.75 22.0931 22.0931 20.75 23.75 20.75H26C27.6569 20.75 29 22.0931 29 23.75V26C29 27.6569 27.6569 29 26 29H23.75C22.0931 29 20.75 27.6569 20.75 26V23.75Z" fill="#C0E00F"/>
<defs>
<radialGradient id="paint0_radial_4_42" cx="0" cy="0" r="1" gradientUnits="userSpaceOnUse" gradientTransform="translate(20 20) rotate(90) scale(35)">
<stop stop-color="#C0E00F"/>
<stop offset="1" stop-color="#C0E00F" stop-opacity="0.5"/>
</radialGradient>
</defs>
</svg>
